<svg width="221" height="63" viewBox="0 0 221 63" fill="none" xmlns="http://www.w3.org/2000/svg">
<path d="M14.848 40.768C13.1413 40.768 11.4347 40.6187 9.728 40.32C8.02133 40.064 6.464 39.5733 5.056 38.848C3.69067 38.1227 2.58133 37.0987 1.728 35.776C0.874667 34.4533 0.448 32.7467 0.448 30.656C0.448 28.9067 0.789333 26.9013 1.472 24.64C2.19733 22.336 3.264 20.032 4.672 17.728C6.08 15.3813 7.82933 13.2053 9.92 11.2C12.0533 9.19467 14.5067 7.59467 17.28 6.4C20.096 5.16267 23.2533 4.544 26.752 4.544C31.872 4.544 35.6053 5.376 37.952 7.04C40.2987 8.66133 41.472 11.2 41.472 14.656C41.472 18.0267 40.768 21.2693 39.36 24.384C37.9947 27.4987 36.0747 30.2933 33.6 32.768C31.168 35.2427 28.352 37.2053 25.152 38.656C21.952 40.064 18.5173 40.768 14.848 40.768ZM14.336 39.808C16.9387 39.808 19.4133 39.3173 21.76 38.336C24.1493 37.312 26.304 35.9467 28.224 34.24C30.1867 32.4907 31.872 30.5067 33.28 28.288C34.7307 26.0693 35.84 23.744 36.608 21.312C37.4187 18.88 37.824 16.4693 37.824 14.08C37.824 11.4347 36.992 9.344 35.328 7.808C33.664 6.272 30.848 5.504 26.88 5.504C24.6187 5.504 22.3573 6.08 20.096 7.232C17.8773 8.34133 15.7867 9.83466 13.824 11.712C11.904 13.5893 10.176 15.6587 8.64 17.92C7.14667 20.1813 5.97333 22.464 5.12 24.768C4.26667 27.072 3.84 29.2267 3.84 31.232C3.84 33.92 4.62933 36.032 6.208 37.568C7.82933 39.0613 10.5387 39.808 14.336 39.808ZM48.88 40.192C48.4533 40.192 48.0907 40.1067 47.792 39.936C47.4933 39.7653 47.344 39.4453 47.344 38.976C47.344 38.3787 47.4933 37.696 47.792 36.928C48.0907 36.16 48.432 35.4133 48.816 34.688C49.2 33.92 49.5413 33.3013 49.84 32.832C48.3467 34.4107 46.7893 35.904 45.168 37.312C44.3573 37.9947 43.4613 38.6347 42.48 39.232C41.4987 39.8293 40.4533 40.128 39.344 40.128C38.9173 40.128 38.6187 40 38.448 39.744C38.2773 39.4453 38.192 39.104 38.192 38.72C38.192 38.5067 38.2133 38.3573 38.256 38.272C38.4693 36.608 39.0027 34.88 39.856 33.088C40.7093 31.296 41.7547 29.6107 42.992 28.032C44.2293 26.4533 45.488 25.1733 46.768 24.192C47.7493 23.4667 48.688 23.0187 49.584 22.848C50.48 22.6347 51.4613 22.528 52.528 22.528H54.64C55.3227 21.376 56.0267 20.096 56.752 18.688C57.52 17.2373 58.2667 15.808 58.992 14.4C59.76 12.992 60.464 11.7547 61.104 10.688C62.8533 7.70133 64.7733 5.312 66.864 3.52C68.9973 1.728 71.3653 0.831997 73.968 0.831997C74.5227 0.831997 75.0347 1.00266 75.504 1.344C75.9733 1.64267 76.1867 2.112 76.144 2.752L76.016 5.056C76.016 5.09867 75.9733 5.16267 75.888 5.248C75.8027 5.29066 75.7387 5.312 75.696 5.312C75.6533 5.312 75.5893 5.26933 75.504 5.184C75.376 4.416 74.992 3.84 74.352 3.456C73.712 3.02933 72.9227 2.816 71.984 2.816C71.6853 2.816 71.344 2.83733 70.96 2.88C70.6187 2.92266 70.2773 3.008 69.936 3.136C68.7413 3.56266 67.6107 4.43733 66.544 5.76C65.4773 7.04 64.3253 8.74667 63.088 10.88C62.6613 11.6907 62.1067 12.7573 61.424 14.08C60.7413 15.36 60.016 16.7467 59.248 18.24C58.5227 19.7333 57.8187 21.184 57.136 22.592C56.496 24 55.9413 25.1947 55.472 26.176C55.2587 26.688 54.896 27.4773 54.384 28.544C53.872 29.568 53.3173 30.6987 52.72 31.936C52.1653 33.1307 51.6747 34.24 51.248 35.264C50.864 36.288 50.672 37.0133 50.672 37.44C50.672 38.0373 50.928 38.336 51.44 38.336C51.952 38.336 52.6347 38.0373 53.488 37.44C54.3413 36.8 55.216 36.032 56.112 35.136C57.0507 34.1973 57.8827 33.3013 58.608 32.448C59.376 31.5947 59.9093 30.9547 60.208 30.528C60.336 30.656 60.4 30.8053 60.4 30.976C60.4 31.2747 60.272 31.5733 60.016 31.872C59.8027 32.1707 59.6107 32.4267 59.44 32.64C58.672 33.664 57.712 34.7733 56.56 35.968C55.4507 37.12 54.2347 38.1227 52.912 38.976C51.5893 39.7867 50.2453 40.192 48.88 40.192ZM41.968 37.952C42.48 37.952 43.184 37.5893 44.08 36.864C45.0187 36.096 46.0213 35.1573 47.088 34.048C48.1547 32.896 49.1573 31.7013 50.096 30.464C51.0347 29.184 51.8027 28.032 52.4 27.008C53.04 25.9413 53.36 25.1307 53.36 24.576C53.36 24.1067 53.2107 23.7867 52.912 23.616C52.656 23.4453 52.3147 23.36 51.888 23.36C51.2053 23.36 50.4587 23.616 49.648 24.128C48.88 24.5973 48.2613 25.0667 47.792 25.536C47.28 26.0053 46.6613 26.752 45.936 27.776C45.2533 28.7573 44.5707 29.8453 43.888 31.04C43.2053 32.2347 42.6293 33.3867 42.16 34.496C41.6907 35.6053 41.456 36.5013 41.456 37.184C41.456 37.696 41.6267 37.952 41.968 37.952ZM72.3005 15.552C71.7032 15.552 71.2765 15.36 71.0205 14.976C70.8498 14.7627 70.7645 14.4853 70.7645 14.144C70.7645 13.4613 71.0845 12.9067 71.7245 12.48C72.1938 12.224 72.6205 12.096 73.0045 12.096C73.6445 12.096 74.0925 12.288 74.3485 12.672C74.5192 12.8853 74.6045 13.1627 74.6045 13.504C74.6045 14.1867 74.2632 14.7413 73.5805 15.168C73.1965 15.424 72.7698 15.552 72.3005 15.552ZM61.1645 40.192C60.7378 40.192 60.3752 40.1067 60.0765 39.936C59.8205 39.7653 59.6925 39.4453 59.6925 38.976C59.6925 38.3787 59.8418 37.6747 60.1405 36.864C60.4818 36.0533 60.8445 35.2427 61.2285 34.432C61.6552 33.6213 61.9752 32.96 62.1885 32.448C62.4872 31.8507 62.8498 31.0827 63.2765 30.144C63.7458 29.1627 64.1725 28.2453 64.5565 27.392C64.9832 26.496 65.2818 25.8773 65.4525 25.536C64.8552 26.176 64.1298 26.9867 63.2765 27.968C62.4658 28.9067 61.6978 29.824 60.9725 30.72C60.2472 31.616 59.6925 32.32 59.3085 32.832C59.1805 33.0027 59.0738 33.088 58.9885 33.088C58.9032 33.088 58.8605 32.9813 58.8605 32.768C58.8605 32.4267 58.9672 32.1067 59.1805 31.808C59.9912 30.784 60.8872 29.632 61.8685 28.352C62.8925 27.072 63.8098 25.8987 64.6205 24.832C65.4312 23.7227 65.9432 22.9973 66.1565 22.656C66.6258 22.5707 67.3085 22.4427 68.2045 22.272C69.1432 22.1013 69.7832 21.8667 70.1245 21.568C70.2525 21.44 70.3805 21.376 70.5085 21.376C70.5938 21.376 70.6365 21.4613 70.6365 21.632C70.6792 21.76 70.6365 21.9093 70.5085 22.08C70.2525 22.3787 69.8045 23.104 69.1645 24.256C68.5245 25.408 67.8418 26.688 67.1165 28.096C66.4338 29.4613 65.7938 30.6987 65.1965 31.808C64.5992 32.96 64.0872 34.0693 63.6605 35.136C63.2338 36.2027 63.0205 36.9707 63.0205 37.44C63.0205 38.0373 63.3192 38.336 63.9165 38.336C64.4712 38.336 65.1752 37.9947 66.0285 37.312C66.9245 36.6293 67.8205 35.8187 68.7165 34.88C69.6125 33.8987 70.4018 33.0027 71.0845 32.192C71.2978 31.936 71.5538 31.6373 71.8525 31.296C72.1938 30.912 72.4072 30.6773 72.4925 30.592C72.5778 30.6773 72.6205 30.8267 72.6205 31.04C72.5778 31.3387 72.4712 31.6373 72.3005 31.936C72.1298 32.192 71.9592 32.4267 71.7885 32.64C70.8925 33.7493 69.9112 34.9013 68.8445 36.096C67.7778 37.248 66.6045 38.2293 65.3245 39.04C64.0445 39.808 62.6578 40.192 61.1645 40.192ZM71.685 40.96C71.5143 40.96 71.5143 40.768 71.685 40.384C71.8983 40 72.0903 39.5733 72.261 39.104C72.4743 38.6347 72.6877 38.1227 72.901 37.568C73.3277 36.544 73.797 35.392 74.309 34.112C74.821 32.832 75.3117 31.5947 75.781 30.4C76.2503 29.1627 76.6557 28.1173 76.997 27.264C77.381 26.368 77.637 25.792 77.765 25.536C77.1677 26.176 76.4423 26.9867 75.589 27.968C74.7783 28.9067 74.0103 29.824 73.285 30.72C72.5597 31.616 72.005 32.32 71.621 32.832C71.493 33.0027 71.3863 33.088 71.301 33.088C71.2157 33.088 71.173 32.9813 71.173 32.768C71.173 32.4267 71.2797 32.1067 71.493 31.808C72.3037 30.784 73.1997 29.632 74.181 28.352C75.205 27.072 76.1223 25.8987 76.933 24.832C77.7437 23.7227 78.2557 22.9973 78.469 22.656C78.9383 22.5707 79.621 22.4427 80.517 22.272C81.4557 22.1013 82.0957 21.8667 82.437 21.568C82.565 21.44 82.693 21.376 82.821 21.376C82.9063 21.376 82.949 21.4613 82.949 21.632C82.9917 21.76 82.949 21.9093 82.821 22.08C82.565 22.3787 82.117 23.0827 81.477 24.192C80.8797 25.2587 80.2183 26.4533 79.493 27.776C78.8103 29.0987 78.1703 30.2933 77.573 31.36C78.085 30.6773 78.6397 30.016 79.237 29.376C79.8343 28.736 80.4103 28.1173 80.965 27.52C81.477 27.008 82.181 26.368 83.077 25.6C83.973 24.832 84.9117 24.128 85.893 23.488C86.8743 22.848 87.7277 22.4853 88.453 22.4C88.6237 22.3573 88.773 22.336 88.901 22.336C89.0717 22.336 89.1997 22.336 89.285 22.336C90.2237 22.336 90.693 22.6773 90.693 23.36C90.693 23.872 90.4157 24.5547 89.861 25.408C89.5623 25.8773 89.093 26.6667 88.453 27.776C87.8557 28.8427 87.237 30.016 86.597 31.296C85.9997 32.5333 85.4663 33.7067 84.997 34.816C84.5703 35.8827 84.357 36.672 84.357 37.184C84.357 37.7813 84.6557 38.08 85.253 38.08C85.9783 38.08 86.7677 37.7173 87.621 36.992C88.517 36.2667 89.477 35.3493 90.501 34.24C91.525 33.088 92.549 31.872 93.573 30.592C93.6583 30.6773 93.701 30.8267 93.701 31.04C93.701 31.3387 93.5943 31.6373 93.381 31.936C93.2103 32.192 93.0397 32.4267 92.869 32.64C92.4423 33.1947 91.8663 33.8987 91.141 34.752C90.4583 35.5627 89.7543 36.3733 89.029 37.184C88.3037 37.952 87.6423 38.5707 87.045 39.04C86.6183 39.3387 86.0637 39.6587 85.381 40C84.6983 40.3413 84.0157 40.512 83.333 40.512C82.565 40.512 82.0317 40.32 81.733 39.936C81.4343 39.5093 81.285 38.9973 81.285 38.4C81.285 37.7173 81.413 36.992 81.669 36.224C81.925 35.456 82.2023 34.7307 82.501 34.048C82.8423 33.3227 83.0983 32.7893 83.269 32.448C84.037 30.9547 84.741 29.5467 85.381 28.224C86.021 26.9013 86.469 25.9627 86.725 25.408C86.853 25.152 86.917 24.9387 86.917 24.768C86.917 24.4693 86.6823 24.448 86.213 24.704C85.7437 24.96 85.1677 25.344 84.485 25.856C83.845 26.368 83.2477 26.88 82.693 27.392C82.1383 27.8613 81.7757 28.1813 81.605 28.352C80.0263 30.016 78.6397 31.872 77.445 33.92C76.293 35.9253 75.3117 37.9947 74.501 40.128C73.9463 40.1707 73.3917 40.32 72.837 40.576C72.2823 40.832 71.8983 40.96 71.685 40.96ZM120.458 41.472C119.391 41.472 118.303 41.1307 117.194 40.448C116.127 39.808 115.039 38.7627 113.93 37.312C112.565 35.4347 111.413 33.6427 110.474 31.936C109.535 30.2293 108.767 28.736 108.17 27.456C107.615 26.176 107.189 25.2587 106.89 24.704C106.89 24.704 106.997 24.576 107.21 24.32C107.423 24.0213 107.679 23.744 107.978 23.488C108.319 23.1893 108.597 23.04 108.81 23.04C110.815 23.04 112.607 23.0187 114.186 22.976C115.807 22.8907 117.237 22.6347 118.474 22.208C119.754 21.7387 120.885 20.9493 121.866 19.84C122.847 18.7307 123.679 17.152 124.362 15.104C124.575 14.592 124.703 14.08 124.746 13.568C124.831 13.0133 124.874 12.48 124.874 11.968C124.874 10.5173 124.511 9.23733 123.786 8.128C123.061 7.01866 122.015 6.37866 120.65 6.208C120.479 6.16533 120.287 6.144 120.074 6.144C119.861 6.144 119.647 6.144 119.434 6.144C118.623 6.144 117.727 6.25066 116.746 6.464C115.807 6.67733 115.103 7.08266 114.634 7.68C113.567 9.088 112.543 10.688 111.562 12.48C110.581 14.2293 109.642 16.0213 108.746 17.856C107.85 19.648 106.997 21.3333 106.186 22.912C105.973 23.3387 105.567 24.1067 104.97 25.216C104.373 26.2827 103.711 27.52 102.986 28.928C102.261 30.2933 101.578 31.6587 100.938 33.024C100.298 34.3893 99.786 35.6053 99.402 36.672C99.0607 37.7387 98.9753 38.464 99.146 38.848C99.1887 38.8907 99.21 38.9547 99.21 39.04C99.21 39.168 99.146 39.232 99.018 39.232C98.6767 39.232 98.3353 39.1467 97.994 38.976C97.6527 38.8053 97.2473 38.72 96.778 38.72C96.3513 38.72 95.9247 38.8267 95.498 39.04C95.0713 39.2107 94.5167 39.5307 93.834 40C93.1513 40.4693 92.3833 40.8533 91.53 41.152C91.4447 41.1947 91.3167 41.216 91.146 41.216C90.8473 41.216 90.6127 41.1307 90.442 40.96C90.2713 40.832 90.2713 40.7253 90.442 40.64C91.3807 40.4693 92.1913 40.128 92.874 39.616C93.5567 39.0613 94.1113 38.3787 94.538 37.568C95.434 36.0747 96.3087 34.5813 97.162 33.088C98.058 31.552 98.9113 30.016 99.722 28.48C100.703 26.6027 101.706 24.7253 102.73 22.848C103.754 20.928 104.778 19.0293 105.802 17.152C106.783 15.4027 107.658 13.7173 108.426 12.096C109.194 10.4747 109.77 9.30133 110.154 8.576C110.453 8.02133 110.965 7.53067 111.69 7.104C112.458 6.63467 113.205 6.272 113.93 6.016C113.674 6.016 113.418 6.016 113.162 6.016C112.906 5.97333 112.629 5.952 112.33 5.952C111.007 5.952 109.557 6.03733 107.978 6.208C106.442 6.336 104.927 6.54933 103.434 6.848C101.983 7.14666 100.703 7.552 99.594 8.064C98.4847 8.576 97.738 9.19467 97.354 9.92C97.1833 10.304 97.034 10.688 96.906 11.072C96.778 11.456 96.714 11.84 96.714 12.224C96.714 13.2053 97.0553 13.9093 97.738 14.336C97.7807 14.336 97.802 14.3787 97.802 14.464C97.802 14.5493 97.7167 14.6347 97.546 14.72C97.418 14.8053 97.3113 14.8267 97.226 14.784C96.7993 14.5707 96.3087 14.0587 95.754 13.248C95.242 12.3947 94.9007 11.6907 94.73 11.136C94.602 10.624 94.538 10.1547 94.538 9.728C94.538 8.61867 94.9007 7.76533 95.626 7.168C96.3513 6.528 97.2687 6.08 98.378 5.824C99.4873 5.52533 100.618 5.35467 101.77 5.312C102.965 5.22666 104.01 5.184 104.906 5.184C106.271 5.184 107.893 5.184 109.77 5.184C111.647 5.14133 113.375 5.12 114.954 5.12C115.338 5.12 115.765 5.12 116.234 5.12C116.703 5.07733 117.194 5.056 117.706 5.056C118.858 5.056 120.053 5.12 121.29 5.248C122.527 5.376 123.658 5.65333 124.682 6.08C125.706 6.50666 126.495 7.168 127.05 8.064C127.775 9.25867 128.138 10.624 128.138 12.16C128.138 14.5067 127.519 16.4693 126.282 18.048C125.855 18.6027 125.386 19.136 124.874 19.648C124.362 20.16 123.765 20.6507 123.082 21.12C121.973 21.888 120.65 22.5493 119.114 23.104C117.578 23.616 115.978 24 114.314 24.256C112.693 24.512 111.199 24.6827 109.834 24.768C110.389 25.9627 111.221 27.5627 112.33 29.568C113.482 31.5733 114.869 33.5787 116.49 35.584C117.343 36.6507 118.218 37.3973 119.114 37.824C120.01 38.2507 120.885 38.464 121.738 38.464C123.103 38.464 124.383 38.0587 125.578 37.248C126.815 36.4373 127.925 35.4987 128.906 34.432C129.93 33.3227 130.741 32.3627 131.338 31.552C131.466 31.3387 131.573 31.232 131.658 31.232C131.786 31.232 131.85 31.36 131.85 31.616C131.85 31.9573 131.722 32.2987 131.466 32.64C129.503 35.328 127.626 37.4827 125.834 39.104C124.042 40.6827 122.25 41.472 120.458 41.472ZM134.574 40.512C132.825 40.512 131.609 40.1707 130.926 39.488C130.243 38.8053 129.902 37.9733 129.902 36.992C129.902 35.7547 130.222 34.432 130.862 33.024C131.545 31.616 132.185 30.4213 132.782 29.44C133.465 28.416 134.382 27.3493 135.534 26.24C136.686 25.1307 137.945 24.192 139.31 23.424C140.675 22.656 141.998 22.272 143.278 22.272C144.387 22.272 145.155 22.5493 145.582 23.104C146.009 23.616 146.222 24.2347 146.222 24.96C146.222 26.2827 145.817 27.3707 145.006 28.224C144.238 29.0773 143.278 29.7813 142.126 30.336C140.974 30.848 139.865 31.2747 138.798 31.616C138.158 31.7867 137.411 31.9573 136.558 32.128C135.705 32.2987 134.894 32.384 134.126 32.384C133.827 33.152 133.593 33.8987 133.422 34.624C133.251 35.3493 133.166 36.0107 133.166 36.608C133.166 37.3333 133.337 37.9307 133.678 38.4C134.062 38.8693 134.681 39.104 135.534 39.104C135.875 39.104 136.281 39.0613 136.75 38.976C137.219 38.8907 137.731 38.7627 138.286 38.592C139.566 38.1653 140.825 37.4827 142.062 36.544C143.299 35.6053 144.43 34.6027 145.454 33.536C146.521 32.4267 147.331 31.5093 147.886 30.784C148.014 30.912 148.078 31.0613 148.078 31.232C148.078 31.4453 147.929 31.7867 147.63 32.256C146.777 33.4507 145.667 34.688 144.302 35.968C142.937 37.248 141.422 38.336 139.758 39.232C138.094 40.0853 136.366 40.512 134.574 40.512ZM134.638 31.104C135.193 31.1467 135.811 31.1467 136.494 31.104C137.219 31.0187 137.923 30.8693 138.606 30.656C140.355 30.144 141.614 29.3333 142.382 28.224C143.193 27.072 143.598 26.048 143.598 25.152C143.598 24.64 143.491 24.2133 143.278 23.872C143.065 23.5307 142.723 23.36 142.254 23.36C141.017 23.36 139.907 23.8293 138.926 24.768C137.945 25.664 137.091 26.7093 136.366 27.904C135.641 29.0987 135.065 30.1653 134.638 31.104ZM149.552 40.512C147.973 40.512 146.864 40.2133 146.224 39.616C145.584 39.0187 145.264 38.2507 145.264 37.312C145.264 36.0747 145.669 34.7093 146.48 33.216C147.29 31.68 148.058 30.4 148.784 29.376C149.509 28.3947 150.32 27.4773 151.216 26.624C152.154 25.728 153.157 24.96 154.224 24.32C154.906 23.8933 155.824 23.4453 156.976 22.976C158.17 22.464 159.173 22.208 159.984 22.208C160.965 22.208 161.648 22.4427 162.032 22.912C162.416 23.3387 162.608 23.872 162.608 24.512C162.608 25.024 162.522 25.5573 162.352 26.112C162.181 26.624 161.989 27.1147 161.776 27.584C161.648 27.84 161.456 28.032 161.2 28.16C160.944 28.2453 160.816 28.2027 160.816 28.032C160.816 27.8187 160.837 27.6267 160.88 27.456C160.922 27.2853 160.944 27.0933 160.944 26.88C160.944 26.0693 160.752 25.28 160.368 24.512C160.026 23.7013 159.493 23.296 158.768 23.296C158 23.296 157.168 23.5733 156.272 24.128C155.376 24.64 154.757 25.088 154.416 25.472C153.306 26.624 152.218 28.0533 151.152 29.76C150.128 31.4667 149.381 33.088 148.911 34.624C148.613 35.52 148.464 36.288 148.464 36.928C148.464 37.6533 148.656 38.1653 149.04 38.464C149.424 38.7627 149.893 38.912 150.448 38.912C150.874 38.912 151.322 38.848 151.792 38.72C152.304 38.592 152.837 38.4427 153.392 38.272C154.672 37.8453 155.952 37.184 157.232 36.288C158.554 35.3493 159.749 34.368 160.816 33.344C161.882 32.2773 162.693 31.36 163.248 30.592C163.333 30.6773 163.376 30.8053 163.376 30.976C163.376 31.1893 163.29 31.4453 163.12 31.744C162.949 32 162.821 32.2133 162.736 32.384C161.84 33.5787 160.666 34.816 159.216 36.096C157.765 37.3333 156.186 38.3787 154.48 39.232C152.816 40.0853 151.173 40.512 149.552 40.512ZM175.426 15.552C174.828 15.552 174.402 15.36 174.146 14.976C173.975 14.7627 173.89 14.4853 173.89 14.144C173.89 13.4613 174.21 12.9067 174.85 12.48C175.319 12.224 175.746 12.096 176.13 12.096C176.77 12.096 177.218 12.288 177.474 12.672C177.644 12.8853 177.73 13.1627 177.73 13.504C177.73 14.1867 177.388 14.7413 176.706 15.168C176.322 15.424 175.895 15.552 175.426 15.552ZM164.29 40.192C163.863 40.192 163.5 40.1067 163.202 39.936C162.946 39.7653 162.818 39.4453 162.818 38.976C162.818 38.3787 162.967 37.6747 163.266 36.864C163.607 36.0533 163.97 35.2427 164.354 34.432C164.78 33.6213 165.1 32.96 165.314 32.448C165.612 31.8507 165.975 31.0827 166.402 30.144C166.871 29.1627 167.298 28.2453 167.682 27.392C168.108 26.496 168.407 25.8773 168.578 25.536C167.98 26.176 167.255 26.9867 166.402 27.968C165.591 28.9067 164.823 29.824 164.098 30.72C163.372 31.616 162.818 32.32 162.434 32.832C162.306 33.0027 162.199 33.088 162.114 33.088C162.028 33.088 161.986 32.9813 161.986 32.768C161.986 32.4267 162.092 32.1067 162.306 31.808C163.116 30.784 164.012 29.632 164.994 28.352C166.018 27.072 166.935 25.8987 167.746 24.832C168.556 23.7227 169.068 22.9973 169.282 22.656C169.751 22.5707 170.434 22.4427 171.33 22.272C172.268 22.1013 172.908 21.8667 173.25 21.568C173.378 21.44 173.506 21.376 173.634 21.376C173.719 21.376 173.762 21.4613 173.762 21.632C173.804 21.76 173.762 21.9093 173.634 22.08C173.378 22.3787 172.93 23.104 172.29 24.256C171.65 25.408 170.967 26.688 170.242 28.096C169.559 29.4613 168.919 30.6987 168.322 31.808C167.724 32.96 167.212 34.0693 166.786 35.136C166.359 36.2027 166.146 36.9707 166.146 37.44C166.146 38.0373 166.444 38.336 167.042 38.336C167.596 38.336 168.3 37.9947 169.154 37.312C170.05 36.6293 170.946 35.8187 171.842 34.88C172.738 33.8987 173.527 33.0027 174.21 32.192C174.423 31.936 174.679 31.6373 174.978 31.296C175.319 30.912 175.532 30.6773 175.618 30.592C175.703 30.6773 175.746 30.8267 175.746 31.04C175.703 31.3387 175.596 31.6373 175.426 31.936C175.255 32.192 175.084 32.4267 174.914 32.64C174.018 33.7493 173.036 34.9013 171.97 36.096C170.903 37.248 169.73 38.2293 168.45 39.04C167.17 39.808 165.783 40.192 164.29 40.192ZM154.138 62.4C152.517 62.4 150.959 62.016 149.466 61.248C147.93 60.5227 146.799 59.392 146.074 57.856C145.818 57.3013 145.647 56.704 145.562 56.064C145.477 55.4667 145.434 54.8693 145.434 54.272V53.568C145.434 53.2267 145.477 52.9067 145.562 52.608C145.647 52.352 145.861 52.224 146.202 52.224C146.33 52.224 146.394 52.2667 146.394 52.352C146.394 52.608 146.373 52.864 146.33 53.12C146.245 53.376 146.202 53.6533 146.202 53.952C146.202 55.9147 146.842 57.408 148.122 58.432C149.359 59.456 150.917 59.968 152.794 59.968C153.562 59.968 154.351 59.8827 155.162 59.712C155.973 59.5413 156.741 59.3067 157.466 59.008C160.154 57.856 162.501 56.2347 164.506 54.144C166.511 52.0533 168.261 49.6853 169.754 47.04C171.247 44.3947 172.57 41.6853 173.722 38.912C174.959 35.8827 176.133 32.896 177.242 29.952C178.394 26.9653 179.674 24.0427 181.082 21.184C182.405 18.5387 183.813 16.5547 185.306 15.232C186.799 13.9093 188.293 13.248 189.786 13.248C190.17 13.248 190.533 13.3547 190.874 13.568C191.258 13.7813 191.429 14.1227 191.386 14.592L191.258 16.384C191.258 16.512 191.173 16.576 191.002 16.576C191.002 16.576 190.981 16.576 190.938 16.576C190.938 16.576 190.938 16.5547 190.938 16.512C190.938 16 190.746 15.6587 190.362 15.488C190.021 15.2747 189.679 15.168 189.338 15.168C187.887 15.168 186.586 15.68 185.434 16.704C184.325 17.6853 183.343 18.9653 182.49 20.544C181.637 22.1227 180.911 23.7867 180.314 25.536C179.717 27.2427 179.226 28.8213 178.842 30.272C179.141 30.016 179.674 29.4827 180.442 28.672C181.253 27.8613 182.191 26.9867 183.258 26.048C184.325 25.1093 185.413 24.2987 186.522 23.616C187.631 22.9333 188.655 22.592 189.594 22.592C190.149 22.592 190.469 22.848 190.554 23.36C190.682 23.8293 190.703 24.2773 190.618 24.704C190.405 26.2827 189.871 27.9893 189.018 29.824C188.165 31.6587 187.055 33.408 185.69 35.072C184.367 36.6933 182.874 38.016 181.21 39.04C179.589 40.064 177.882 40.576 176.09 40.576C175.877 40.576 175.578 40.5547 175.194 40.512C174.853 40.512 174.639 40.4693 174.554 40.384C173.658 43.072 172.506 45.824 171.098 48.64C169.69 51.456 168.005 53.9947 166.042 56.256C164.037 58.56 161.669 60.288 158.938 61.44C157.487 62.08 155.887 62.4 154.138 62.4ZM177.05 39.488C177.69 39.488 178.415 39.232 179.226 38.72C180.079 38.1653 180.719 37.6747 181.146 37.248C181.658 36.7787 182.255 36.0533 182.938 35.072C183.663 34.048 184.367 32.9387 185.05 31.744C185.775 30.5493 186.373 29.3973 186.842 28.288C187.311 27.1787 187.546 26.2827 187.546 25.6C187.546 25.3867 187.503 25.1947 187.418 25.024C187.333 24.8533 187.183 24.768 186.97 24.768C186.586 24.768 186.074 25.0027 185.434 25.472C184.794 25.9413 184.111 26.5173 183.386 27.2C182.703 27.84 182.063 28.48 181.466 29.12C180.869 29.7173 180.442 30.1653 180.186 30.464C179.759 30.976 179.183 31.7227 178.458 32.704C177.733 33.6853 177.093 34.688 176.538 35.712C175.983 36.6933 175.706 37.5253 175.706 38.208C175.706 39.0613 176.154 39.488 177.05 39.488ZM194.387 40.512C192.637 40.512 191.421 40.1707 190.739 39.488C190.056 38.8053 189.715 37.9733 189.715 36.992C189.715 35.7547 190.035 34.432 190.674 33.024C191.357 31.616 191.997 30.4213 192.595 29.44C193.277 28.416 194.195 27.3493 195.347 26.24C196.499 25.1307 197.757 24.192 199.123 23.424C200.488 22.656 201.811 22.272 203.091 22.272C204.2 22.272 204.968 22.5493 205.395 23.104C205.821 23.616 206.035 24.2347 206.035 24.96C206.035 26.2827 205.629 27.3707 204.819 28.224C204.051 29.0773 203.091 29.7813 201.939 30.336C200.787 30.848 199.677 31.2747 198.611 31.616C197.971 31.7867 197.224 31.9573 196.371 32.128C195.517 32.2987 194.707 32.384 193.939 32.384C193.64 33.152 193.405 33.8987 193.235 34.624C193.064 35.3493 192.979 36.0107 192.979 36.608C192.979 37.3333 193.149 37.9307 193.491 38.4C193.875 38.8693 194.493 39.104 195.347 39.104C195.688 39.104 196.093 39.0613 196.562 38.976C197.032 38.8907 197.544 38.7627 198.099 38.592C199.379 38.1653 200.637 37.4827 201.875 36.544C203.112 35.6053 204.243 34.6027 205.267 33.536C206.333 32.4267 207.144 31.5093 207.699 30.784C207.827 30.912 207.891 31.0613 207.891 31.232C207.891 31.4453 207.741 31.7867 207.443 32.256C206.589 33.4507 205.48 34.688 204.115 35.968C202.749 37.248 201.235 38.336 199.571 39.232C197.907 40.0853 196.179 40.512 194.387 40.512ZM194.451 31.104C195.005 31.1467 195.624 31.1467 196.307 31.104C197.032 31.0187 197.736 30.8693 198.419 30.656C200.168 30.144 201.427 29.3333 202.195 28.224C203.005 27.072 203.411 26.048 203.411 25.152C203.411 24.64 203.304 24.2133 203.091 23.872C202.877 23.5307 202.536 23.36 202.067 23.36C200.829 23.36 199.72 23.8293 198.739 24.768C197.757 25.664 196.904 26.7093 196.179 27.904C195.453 29.0987 194.877 30.1653 194.451 31.104ZM210.516 41.024C209.748 41.024 208.937 40.9173 208.084 40.704C207.231 40.4907 206.463 40.1493 205.78 39.68C205.14 39.168 204.713 38.4853 204.5 37.632C204.457 37.504 204.436 37.312 204.436 37.056C204.436 36.4587 204.564 35.7973 204.82 35.072C205.119 34.3467 205.481 33.8347 205.908 33.536C206.079 33.4507 206.207 33.4507 206.292 33.536C206.42 33.6213 206.441 33.7067 206.356 33.792C206.313 33.92 206.249 34.0907 206.164 34.304C206.079 34.4747 206.015 34.6667 205.972 34.88C205.844 35.9893 206.079 36.9707 206.676 37.824C206.932 38.1653 207.231 38.4853 207.572 38.784C207.956 39.0827 208.319 39.3387 208.66 39.552C208.959 39.7227 209.321 39.8507 209.748 39.936C210.175 39.9787 210.601 40 211.028 40C211.711 40 212.372 39.9147 213.012 39.744C213.652 39.5733 214.121 39.296 214.42 38.912C214.975 38.2293 215.252 37.4613 215.252 36.608C215.252 35.968 215.081 35.2853 214.74 34.56C214.399 33.8347 213.865 33.0667 213.14 32.256C212.671 31.744 212.223 31.1893 211.796 30.592C211.369 29.9947 211.092 29.3547 210.964 28.672C210.921 28.544 210.879 28.416 210.836 28.288C210.836 28.16 210.836 28.032 210.836 27.904C210.281 28.7147 209.705 29.4827 209.108 30.208C208.553 30.8907 208.063 31.488 207.636 32C207.465 32.256 207.316 32.384 207.188 32.384C207.103 32.384 207.06 32.2987 207.06 32.128C207.06 31.744 207.231 31.3387 207.572 30.912C207.913 30.528 208.297 30.0587 208.724 29.504C209.151 28.9067 209.492 28.4373 209.748 28.096C210.473 27.0293 211.007 26.1973 211.348 25.6C211.732 24.96 212.137 24.384 212.564 23.872C213.033 23.3173 213.609 22.8693 214.292 22.528C215.017 22.1867 215.764 22.016 216.532 22.016C217.428 22.016 218.239 22.1653 218.964 22.464C219.732 22.72 220.137 23.4027 220.18 24.512C220.18 25.024 220.073 25.5573 219.86 26.112C219.689 26.624 219.497 27.1147 219.284 27.584C219.156 27.84 218.964 28.032 218.708 28.16C218.495 28.2453 218.388 28.2027 218.388 28.032C218.388 27.8613 218.409 27.6693 218.452 27.456C218.495 27.2427 218.516 27.0507 218.516 26.88C218.516 26.1547 218.388 25.5147 218.132 24.96C217.919 24.3627 217.599 23.936 217.172 23.68C216.745 23.3813 216.297 23.232 215.828 23.232C215.145 23.232 214.484 23.5093 213.844 24.064C213.204 24.576 212.884 25.2587 212.884 26.112C212.884 26.1973 212.884 26.304 212.884 26.432C212.884 26.56 212.905 26.6667 212.948 26.752C213.119 27.4347 213.631 28.2027 214.484 29.056C215.337 29.9093 215.999 30.656 216.468 31.296C217.279 32.4053 217.684 33.536 217.684 34.688C217.684 35.84 217.343 36.9067 216.66 37.888C216.02 38.8267 215.145 39.5733 214.036 40.128C212.969 40.7253 211.796 41.024 210.516 41.024Z" fill="black"/>
</svg>
